<mxfile host="app.diagrams.net" modified="2023-08-25T15:27:27.587Z" agent="Mozilla/5.0 (X11; Linux x86_64; rv:109.0) Gecko/20100101 Firefox/116.0" etag="Kv7P0aSkUE3y5ZYkWJwo" version="21.6.9" type="device">
  <diagram name="Page-1" id="f5A6CDPiya6YqWZAvQuT">
    <mxGraphModel dx="954" dy="-659" grid="1" gridSize="10" guides="1" tooltips="1" connect="1" arrows="1" fold="1" page="1" pageScale="1" pageWidth="827" pageHeight="1169" math="0" shadow="0">
      <root>
        <mxCell id="0" />
        <mxCell id="1" parent="0" />
        <mxCell id="3oUJ_5gLEvu6R0pSqBkJ-1" value="LOOP" style="shape=umlFrame;tabWidth=110;tabHeight=30;tabPosition=left;html=1;boundedLbl=1;labelInHeader=1;width=40;height=20;swimlaneFillColor=#E6E6E6;fillColor=#f5f5f5;strokeColor=#666666;fillOpacity=60;fontColor=#333333;" parent="1" vertex="1">
          <mxGeometry x="205" y="1430" width="390" height="370" as="geometry" />
        </mxCell>
        <mxCell id="3oUJ_5gLEvu6R0pSqBkJ-40" value="1.generaFoglioRiepilogativo(servizio)" style="html=1;verticalAlign=bottom;endArrow=block;edgeStyle=elbowEdgeStyle;elbow=vertical;curved=0;rounded=0;labelBackgroundColor=none;" parent="1" edge="1">
          <mxGeometry x="-0.0028" relative="1" as="geometry">
            <mxPoint x="253.75" y="1504" as="sourcePoint" />
            <Array as="points" />
            <mxPoint x="540" y="1504" as="targetPoint" />
            <mxPoint as="offset" />
          </mxGeometry>
        </mxCell>
        <mxCell id="3oUJ_5gLEvu6R0pSqBkJ-33" value="LOOP" style="shape=umlFrame;tabWidth=110;tabHeight=30;tabPosition=left;html=1;boundedLbl=1;labelInHeader=1;width=40;height=20;swimlaneFillColor=#E6E6E6;fillColor=#f5f5f5;strokeColor=#666666;fillOpacity=60;fontColor=#333333;" parent="1" vertex="1">
          <mxGeometry x="165" y="1540" width="470" height="1140" as="geometry" />
        </mxCell>
        <mxCell id="3oUJ_5gLEvu6R0pSqBkJ-21" value="LOOP" style="shape=umlFrame;tabWidth=110;tabHeight=30;tabPosition=left;html=1;boundedLbl=1;labelInHeader=1;width=40;height=20;swimlaneFillColor=#E6E6E6;fillColor=#f5f5f5;strokeColor=#666666;fillOpacity=60;fontColor=#333333;" parent="1" vertex="1">
          <mxGeometry x="185" y="1820" width="430" height="850" as="geometry" />
        </mxCell>
        <mxCell id="3oUJ_5gLEvu6R0pSqBkJ-22" value="OPT" style="shape=umlFrame;tabWidth=110;tabHeight=30;tabPosition=left;html=1;boundedLbl=1;labelInHeader=1;width=40;height=20;swimlaneFillColor=#E6E6E6;fillColor=#f5f5f5;strokeColor=#666666;fillOpacity=60;fontColor=#333333;" parent="1" vertex="1">
          <mxGeometry x="195" y="1850" width="390" height="90" as="geometry" />
        </mxCell>
        <mxCell id="3oUJ_5gLEvu6R0pSqBkJ-23" value="4.consultaTabelloneTurni()" style="html=1;verticalAlign=bottom;endArrow=block;edgeStyle=elbowEdgeStyle;elbow=vertical;curved=0;rounded=0;labelBackgroundColor=none;fillColor=#f5f5f5;strokeColor=#666666;" parent="1" edge="1">
          <mxGeometry relative="1" as="geometry">
            <mxPoint x="251.25" y="1890" as="sourcePoint" />
            <Array as="points" />
            <mxPoint x="538.75" y="1890" as="targetPoint" />
          </mxGeometry>
        </mxCell>
        <mxCell id="3oUJ_5gLEvu6R0pSqBkJ-24" value="tabellone turni" style="html=1;verticalAlign=bottom;endArrow=open;edgeStyle=elbowEdgeStyle;elbow=vertical;curved=0;rounded=0;labelBackgroundColor=none;endFill=0;dashed=1;fillColor=#f5f5f5;strokeColor=#666666;" parent="1" edge="1">
          <mxGeometry relative="1" as="geometry">
            <mxPoint x="540.25" y="1919.9999999999995" as="sourcePoint" />
            <mxPoint x="249.75" y="1920" as="targetPoint" />
          </mxGeometry>
        </mxCell>
        <mxCell id="3oUJ_5gLEvu6R0pSqBkJ-27" value="OPT" style="shape=umlFrame;tabWidth=110;tabHeight=30;tabPosition=left;html=1;boundedLbl=1;labelInHeader=1;width=40;height=20;swimlaneFillColor=#E6E6E6;fillColor=#f5f5f5;strokeColor=#666666;fillOpacity=60;fontColor=#333333;" parent="1" vertex="1">
          <mxGeometry x="195" y="1947.5" width="390" height="502.5" as="geometry" />
        </mxCell>
        <mxCell id="3oUJ_5gLEvu6R0pSqBkJ-34" value="OPT" style="shape=umlFrame;tabWidth=110;tabHeight=30;tabPosition=left;html=1;boundedLbl=1;labelInHeader=1;width=40;height=20;swimlaneFillColor=#E6E6E6;fillColor=#f5f5f5;strokeColor=#666666;fillOpacity=60;fontColor=#333333;" parent="1" vertex="1">
          <mxGeometry x="195" y="2460" width="390" height="90" as="geometry" />
        </mxCell>
        <mxCell id="3oUJ_5gLEvu6R0pSqBkJ-28" value="6.modificaDettagliCompito(compito, stimaTempo?,quantitÃ ?, daPreparare?)" style="html=1;verticalAlign=bottom;endArrow=block;edgeStyle=elbowEdgeStyle;elbow=horizontal;curved=0;rounded=0;labelBackgroundColor=none;fillColor=#f5f5f5;strokeColor=#666666;" parent="1" edge="1">
          <mxGeometry relative="1" as="geometry">
            <mxPoint x="252.5" y="2502.5" as="sourcePoint" />
            <Array as="points">
              <mxPoint x="348" y="2502.91" />
            </Array>
            <mxPoint x="539.5" y="2502.91" as="targetPoint" />
          </mxGeometry>
        </mxCell>
        <mxCell id="3oUJ_5gLEvu6R0pSqBkJ-29" value="compito aggiornato" style="html=1;verticalAlign=bottom;endArrow=open;edgeStyle=elbowEdgeStyle;elbow=vertical;curved=0;rounded=0;labelBackgroundColor=none;fillColor=#f5f5f5;strokeColor=#666666;endFill=0;dashed=1;" parent="1" edge="1">
          <mxGeometry relative="1" as="geometry">
            <mxPoint x="539.5" y="2532" as="sourcePoint" />
            <mxPoint x="250" y="2532.4999999999995" as="targetPoint" />
          </mxGeometry>
        </mxCell>
        <mxCell id="3oUJ_5gLEvu6R0pSqBkJ-9" value="LOOP" style="shape=umlFrame;tabWidth=110;tabHeight=30;tabPosition=left;html=1;boundedLbl=1;labelInHeader=1;width=40;height=20;swimlaneFillColor=#E6E6E6;fillColor=#f5f5f5;strokeColor=#666666;fillOpacity=60;fontColor=#333333;" parent="1" vertex="1">
          <mxGeometry x="215" y="1550" width="355" height="120" as="geometry" />
        </mxCell>
        <mxCell id="3oUJ_5gLEvu6R0pSqBkJ-13" value="OPT" style="shape=umlFrame;tabWidth=110;tabHeight=30;tabPosition=left;html=1;boundedLbl=1;labelInHeader=1;width=40;height=20;swimlaneFillColor=#E6E6E6;fillColor=#f5f5f5;strokeColor=#666666;fillOpacity=60;fontColor=#333333;container=1;" parent="1" vertex="1">
          <mxGeometry x="220" y="1680" width="350" height="90" as="geometry" />
        </mxCell>
        <mxCell id="3oUJ_5gLEvu6R0pSqBkJ-18" value="foglio riepilogativo ordinato" style="html=1;verticalAlign=bottom;endArrow=open;edgeStyle=elbowEdgeStyle;elbow=vertical;curved=0;rounded=0;labelBackgroundColor=none;endFill=0;dashed=1;fillColor=#f5f5f5;strokeColor=#666666;" parent="3oUJ_5gLEvu6R0pSqBkJ-13" edge="1">
          <mxGeometry x="0.002" relative="1" as="geometry">
            <mxPoint x="320.25" y="70.00041666666675" as="sourcePoint" />
            <mxPoint x="29.75" y="70.06999999999994" as="targetPoint" />
            <mxPoint as="offset" />
          </mxGeometry>
        </mxCell>
        <mxCell id="3oUJ_5gLEvu6R0pSqBkJ-16" value="3.ordinaFoglioRiepilogativo(criterioOrdinamento)" style="html=1;verticalAlign=bottom;endArrow=block;edgeStyle=elbowEdgeStyle;elbow=vertical;curved=0;rounded=0;labelBackgroundColor=none;fillColor=#f5f5f5;strokeColor=#666666;" parent="3oUJ_5gLEvu6R0pSqBkJ-13" target="3oUJ_5gLEvu6R0pSqBkJ-31" edge="1">
          <mxGeometry relative="1" as="geometry">
            <mxPoint x="32.5" y="37.91666666666674" as="sourcePoint" />
            <Array as="points">
              <mxPoint x="128" y="38.13875000000007" />
            </Array>
            <mxPoint x="317.5" y="38.138749999999845" as="targetPoint" />
          </mxGeometry>
        </mxCell>
        <mxCell id="8e-te7Ogq6yMoprlRzKs-14" value="2.aggiungeCompito(mansione, compitoPrec?)" style="html=1;verticalAlign=bottom;endArrow=block;edgeStyle=elbowEdgeStyle;elbow=vertical;curved=0;rounded=0;labelBackgroundColor=none;" parent="1" target="3oUJ_5gLEvu6R0pSqBkJ-31" edge="1">
          <mxGeometry relative="1" as="geometry">
            <mxPoint x="252.5" y="1613.8600000000004" as="sourcePoint" />
            <Array as="points">
              <mxPoint x="348" y="1614.27" />
            </Array>
            <mxPoint x="537.5" y="1614.2699999999998" as="targetPoint" />
          </mxGeometry>
        </mxCell>
        <mxCell id="8e-te7Ogq6yMoprlRzKs-15" value="foglio riepilogativo aggiornato" style="html=1;verticalAlign=bottom;endArrow=open;edgeStyle=elbowEdgeStyle;elbow=vertical;curved=0;rounded=0;labelBackgroundColor=none;dashed=1;endFill=0;" parent="1" edge="1">
          <mxGeometry relative="1" as="geometry">
            <mxPoint x="537.5" y="1644.86" as="sourcePoint" />
            <mxPoint x="252.5" y="1644.86" as="targetPoint" />
          </mxGeometry>
        </mxCell>
        <mxCell id="8e-te7Ogq6yMoprlRzKs-39" value="&lt;font color=&quot;#ffa89e&quot;&gt;ALT&lt;/font&gt;" style="shape=umlFrame;tabWidth=110;tabHeight=30;tabPosition=left;html=1;boundedLbl=1;labelInHeader=1;width=50;height=20;swimlaneFillColor=#FFE6CC;fillColor=#ffe6cc;strokeColor=#d79b00;fillOpacity=60;" parent="1" vertex="1">
          <mxGeometry x="230" y="1980" width="340" height="280" as="geometry" />
        </mxCell>
        <mxCell id="8e-te7Ogq6yMoprlRzKs-40" value="5.assegnaCompito(compito, turno, cuoco?)" style="html=1;verticalAlign=bottom;endArrow=block;edgeStyle=elbowEdgeStyle;elbow=vertical;curved=0;rounded=0;labelBackgroundColor=none;" parent="1" edge="1">
          <mxGeometry relative="1" as="geometry">
            <mxPoint x="252.5" y="2020" as="sourcePoint" />
            <Array as="points">
              <mxPoint x="348" y="2020.4099999999999" />
            </Array>
            <mxPoint x="537.5" y="2020.4099999999994" as="targetPoint" />
          </mxGeometry>
        </mxCell>
        <mxCell id="8e-te7Ogq6yMoprlRzKs-45" value="" style="shape=umlFrame;tabWidth=110;tabHeight=30;tabPosition=left;html=1;boundedLbl=1;labelInHeader=1;width=10;height=15;swimlaneFillColor=#FFE6CC;fillColor=#ffe6cc;strokeColor=#d79b00;fillOpacity=60;" parent="1" vertex="1">
          <mxGeometry x="230" y="2260" width="340" height="80" as="geometry" />
        </mxCell>
        <mxCell id="8e-te7Ogq6yMoprlRzKs-46" value="5b.1.modificaSaturazione(turno, completo)" style="html=1;verticalAlign=bottom;endArrow=block;edgeStyle=elbowEdgeStyle;elbow=vertical;curved=0;rounded=0;labelBackgroundColor=none;" parent="1" edge="1">
          <mxGeometry relative="1" as="geometry">
            <mxPoint x="250" y="2289" as="sourcePoint" />
            <Array as="points">
              <mxPoint x="353" y="2289.12" />
            </Array>
            <mxPoint x="542.5" y="2289.119999999999" as="targetPoint" />
          </mxGeometry>
        </mxCell>
        <mxCell id="8e-te7Ogq6yMoprlRzKs-47" value="stato turno aggiornato" style="html=1;verticalAlign=bottom;endArrow=open;edgeStyle=elbowEdgeStyle;elbow=horizontal;curved=0;rounded=0;labelBackgroundColor=none;dashed=1;endFill=0;" parent="1" edge="1">
          <mxGeometry relative="1" as="geometry">
            <mxPoint x="542.5" y="2318.7099999999996" as="sourcePoint" />
            <mxPoint x="250" y="2319" as="targetPoint" />
          </mxGeometry>
        </mxCell>
        <mxCell id="8e-te7Ogq6yMoprlRzKs-48" value="" style="shape=umlFrame;tabWidth=110;tabHeight=30;tabPosition=left;html=1;boundedLbl=1;labelInHeader=1;width=10;height=15;swimlaneFillColor=#FFE6CC;fillColor=#ffe6cc;strokeColor=#d79b00;fillOpacity=60;" parent="1" vertex="1">
          <mxGeometry x="230" y="2340" width="340" height="80" as="geometry" />
        </mxCell>
        <mxCell id="8e-te7Ogq6yMoprlRzKs-49" value="5c.1.eliminaAssegnazione(compito)" style="html=1;verticalAlign=bottom;endArrow=block;edgeStyle=elbowEdgeStyle;elbow=vertical;curved=0;rounded=0;labelBackgroundColor=none;" parent="1" edge="1">
          <mxGeometry relative="1" as="geometry">
            <mxPoint x="250" y="2369" as="sourcePoint" />
            <Array as="points">
              <mxPoint x="353" y="2369.12" />
            </Array>
            <mxPoint x="542.5" y="2369.119999999999" as="targetPoint" />
          </mxGeometry>
        </mxCell>
        <mxCell id="8e-te7Ogq6yMoprlRzKs-38" value="" style="group" parent="1" vertex="1" connectable="0">
          <mxGeometry x="240" y="2040" width="320" height="210" as="geometry" />
        </mxCell>
        <mxCell id="8e-te7Ogq6yMoprlRzKs-24" value="" style="group" parent="8e-te7Ogq6yMoprlRzKs-38" vertex="1" connectable="0">
          <mxGeometry width="320" height="160" as="geometry" />
        </mxCell>
        <mxCell id="8e-te7Ogq6yMoprlRzKs-25" value="" style="shape=umlFrame;whiteSpace=wrap;html=1;swimlaneFillColor=#FF9999;fillColor=#f8cecc;strokeColor=#FF3333;fillOpacity=60;fontColor=#FF0000;width=10;height=15;" parent="8e-te7Ogq6yMoprlRzKs-24" vertex="1">
          <mxGeometry y="110" width="320" height="50" as="geometry" />
        </mxCell>
        <mxCell id="8e-te7Ogq6yMoprlRzKs-26" value="ALT" style="shape=umlFrame;whiteSpace=wrap;html=1;swimlaneFillColor=#FF9999;fillColor=#f8cecc;strokeColor=#FF3333;fillOpacity=60;fontColor=#FF0000;" parent="8e-te7Ogq6yMoprlRzKs-24" vertex="1">
          <mxGeometry width="320" height="60" as="geometry" />
        </mxCell>
        <mxCell id="8e-te7Ogq6yMoprlRzKs-27" value="" style="shape=umlFrame;whiteSpace=wrap;html=1;swimlaneFillColor=#FF9999;fillColor=#f8cecc;strokeColor=#FF3333;fillOpacity=60;fontColor=#FF0000;width=10;height=15;" parent="8e-te7Ogq6yMoprlRzKs-24" vertex="1">
          <mxGeometry y="60" width="320" height="50" as="geometry" />
        </mxCell>
        <mxCell id="8e-te7Ogq6yMoprlRzKs-28" value="foglio riepilogativo aggiornato" style="html=1;verticalAlign=bottom;endArrow=open;edgeStyle=elbowEdgeStyle;elbow=vertical;curved=0;rounded=0;labelBackgroundColor=none;dashed=1;endFill=0;" parent="8e-te7Ogq6yMoprlRzKs-24" edge="1">
          <mxGeometry relative="1" as="geometry">
            <mxPoint x="300" y="40" as="sourcePoint" />
            <mxPoint x="10" y="40.14000000000033" as="targetPoint" />
          </mxGeometry>
        </mxCell>
        <mxCell id="8e-te7Ogq6yMoprlRzKs-29" value="5.1a.1 il turno indicato Ã¨ completo" style="html=1;verticalAlign=bottom;endArrow=open;edgeStyle=elbowEdgeStyle;elbow=horizontal;curved=0;rounded=0;labelBackgroundColor=none;dashed=1;strokeColor=#FF0000;fontColor=#FF0000;endFill=0;" parent="8e-te7Ogq6yMoprlRzKs-24" edge="1">
          <mxGeometry relative="1" as="geometry">
            <mxPoint x="300" y="84.5" as="sourcePoint" />
            <mxPoint x="10" y="84.64000000000033" as="targetPoint" />
          </mxGeometry>
        </mxCell>
        <mxCell id="8e-te7Ogq6yMoprlRzKs-30" value="" style="shape=umlDestroy;whiteSpace=wrap;html=1;strokeWidth=3;targetShapes=umlLifeline;" parent="8e-te7Ogq6yMoprlRzKs-24" vertex="1">
          <mxGeometry x="290" y="75" width="20" height="20" as="geometry" />
        </mxCell>
        <mxCell id="8e-te7Ogq6yMoprlRzKs-31" value="5.1b.1 cuoco non disponibile" style="html=1;verticalAlign=bottom;endArrow=open;edgeStyle=elbowEdgeStyle;elbow=horizontal;curved=0;rounded=0;labelBackgroundColor=none;dashed=1;strokeColor=#FF0000;fontColor=#FF0000;endFill=0;" parent="8e-te7Ogq6yMoprlRzKs-24" edge="1">
          <mxGeometry relative="1" as="geometry">
            <mxPoint x="300" y="134.5" as="sourcePoint" />
            <mxPoint x="10" y="134.64000000000033" as="targetPoint" />
          </mxGeometry>
        </mxCell>
        <mxCell id="8e-te7Ogq6yMoprlRzKs-32" value="" style="shape=umlDestroy;whiteSpace=wrap;html=1;strokeWidth=3;targetShapes=umlLifeline;" parent="8e-te7Ogq6yMoprlRzKs-24" vertex="1">
          <mxGeometry x="290" y="125" width="20" height="20" as="geometry" />
        </mxCell>
        <mxCell id="8e-te7Ogq6yMoprlRzKs-33" value="" style="shape=umlFrame;whiteSpace=wrap;html=1;swimlaneFillColor=#FF9999;fillColor=#f8cecc;strokeColor=#FF3333;fillOpacity=60;fontColor=#FF0000;width=10;height=15;" parent="8e-te7Ogq6yMoprlRzKs-38" vertex="1">
          <mxGeometry y="160" width="320" height="50" as="geometry" />
        </mxCell>
        <mxCell id="8e-te7Ogq6yMoprlRzKs-34" value="5.1c.1 il compito indicato non Ã¨ da prepare" style="html=1;verticalAlign=bottom;endArrow=open;edgeStyle=elbowEdgeStyle;elbow=horizontal;curved=0;rounded=0;labelBackgroundColor=none;dashed=1;strokeColor=#FF0000;fontColor=#FF0000;endFill=0;" parent="8e-te7Ogq6yMoprlRzKs-38" edge="1">
          <mxGeometry relative="1" as="geometry">
            <mxPoint x="300" y="184.5" as="sourcePoint" />
            <mxPoint x="10" y="184.64000000000033" as="targetPoint" />
          </mxGeometry>
        </mxCell>
        <mxCell id="8e-te7Ogq6yMoprlRzKs-35" value="" style="shape=umlDestroy;whiteSpace=wrap;html=1;strokeWidth=3;targetShapes=umlLifeline;" parent="8e-te7Ogq6yMoprlRzKs-38" vertex="1">
          <mxGeometry x="290" y="175" width="20" height="20" as="geometry" />
        </mxCell>
        <mxCell id="8e-te7Ogq6yMoprlRzKs-69" value="foglio riepilogativo aggiornato" style="html=1;verticalAlign=bottom;endArrow=open;edgeStyle=elbowEdgeStyle;elbow=vertical;curved=0;rounded=0;labelBackgroundColor=none;dashed=1;endFill=0;" parent="1" edge="1">
          <mxGeometry relative="1" as="geometry">
            <mxPoint x="540" y="2390" as="sourcePoint" />
            <mxPoint x="250" y="2390.1400000000003" as="targetPoint" />
          </mxGeometry>
        </mxCell>
        <mxCell id="dRs57TYROqj73aaHYJT0-1" value="OPT" style="shape=umlFrame;tabWidth=110;tabHeight=30;tabPosition=left;html=1;boundedLbl=1;labelInHeader=1;width=40;height=20;swimlaneFillColor=#E6E6E6;fillColor=#f6f5f4;strokeColor=#5e5c64;fillOpacity=60;fontColor=#1A1A1A;" parent="1" vertex="1">
          <mxGeometry x="195" y="2560" width="390" height="90" as="geometry" />
        </mxCell>
        <mxCell id="dRs57TYROqj73aaHYJT0-2" value="7.modificaDaPreparare(compito, daPreparare)" style="html=1;verticalAlign=bottom;endArrow=block;edgeStyle=elbowEdgeStyle;elbow=horizontal;curved=0;rounded=0;labelBackgroundColor=none;" parent="1" edge="1">
          <mxGeometry relative="1" as="geometry">
            <mxPoint x="250" y="2600" as="sourcePoint" />
            <Array as="points">
              <mxPoint x="345.5" y="2600.41" />
            </Array>
            <mxPoint x="535" y="2600.4099999999994" as="targetPoint" />
          </mxGeometry>
        </mxCell>
        <mxCell id="dRs57TYROqj73aaHYJT0-3" value="compito aggiornato" style="html=1;verticalAlign=bottom;endArrow=open;edgeStyle=elbowEdgeStyle;elbow=vertical;curved=0;rounded=0;labelBackgroundColor=none;endFill=0;dashed=1;" parent="1" edge="1">
          <mxGeometry relative="1" as="geometry">
            <mxPoint x="535" y="2629.9999999999995" as="sourcePoint" />
            <mxPoint x="250" y="2629.9999999999995" as="targetPoint" />
          </mxGeometry>
        </mxCell>
        <mxCell id="3oUJ_5gLEvu6R0pSqBkJ-31" value="Sistema" style="shape=umlLifeline;perimeter=lifelinePerimeter;whiteSpace=wrap;html=1;container=0;collapsible=0;recursiveResize=0;outlineConnect=0;labelBackgroundColor=none;" parent="1" vertex="1">
          <mxGeometry x="490" y="1340" width="100" height="1540" as="geometry" />
        </mxCell>
        <mxCell id="3oUJ_5gLEvu6R0pSqBkJ-30" value="Chef" style="shape=umlLifeline;participant=umlActor;perimeter=lifelinePerimeter;whiteSpace=wrap;html=1;container=1;collapsible=0;recursiveResize=0;verticalAlign=top;spacingTop=36;outlineConnect=0;labelBackgroundColor=default;" parent="1" vertex="1">
          <mxGeometry x="240" y="1340" width="25" height="1550" as="geometry" />
        </mxCell>
      </root>
    </mxGraphModel>
  </diagram>
</mxfile>
